<svg xmlns="http://www.w3.org/2000/svg" height="128px" width="128px">
    <rect fill="#191C1D" height="128" width="128"/>

    <svg height="128px" width="128px" viewBox="0 0 24 24">
        <path fill="#FFB0CB"
              fill-opacity="0.75"
              d="M12 4C7 4 2.73 7.11 1 11.5 2.73 15.89 7 19 12 19s9.27-3.11 11-7.5C21.27 7.11 17 4 12 4zm0 12.5c-2.76 0-5-2.24-5-5s2.24-5 5-5 5 2.24 5 5-2.24 5-5 5zm0-8c-1.66 0-3 1.34-3 3s1.34 3 3 3 3-1.34 3-3-1.34-3-3-3z"/>
    </svg>

    <svg height="128px" width="128px" viewBox="2 1.5 16 16">
        <path fill="#4FD8EA"
              d="M13,5.39V2.75C13,2.34,12.66,2,12.25,2h0c-0.41,0-0.75,0.34-0.75,0.75v2.64C10.63,5.7,10,6.52,10,7.5 c0,0.98,0.63,1.8,1.5,2.11l0,3.26c0,1.32-0.96,2.5-2.27,2.62C7.75,15.62,6.5,14.45,6.5,13v-1h1.29c0.45,0,0.67-0.54,0.35-0.85 L5.85,8.85C5.54,8.54,5,8.76,5,9.21l0,3.63c0,2.07,1.68,4.02,3.74,4.15C11.06,17.14,13,15.29,13,13V9.61 c0.87-0.31,1.5-1.13,1.5-2.11C14.5,6.52,13.87,5.7,13,5.39z M12.25,8.25c-0.41,0-0.75-0.34-0.75-0.75c0-0.41,0.34-0.75,0.75-0.75 S13,7.09,13,7.5C13,7.91,12.66,8.25,12.25,8.25z"/>
    </svg>
</svg>